<?xml version="1.0" encoding="UTF-8" standalone="no"?>
<!DOCTYPE svg PUBLIC "-//W3C//DTD SVG 1.1//EN"
 "http://www.w3.org/Graphics/SVG/1.1/DTD/svg11.dtd">
<!-- Generated by graphviz version 2.47.0 (20210316.0004)
 -->
<!-- Title: dependencies Pages: 1 -->
<svg width="914pt" height="211pt"
 viewBox="0.00 0.00 914.00 211.00" xmlns="http://www.w3.org/2000/svg" xmlns:xlink="http://www.w3.org/1999/xlink">
<g id="graph0" class="graph" transform="scale(1 1) rotate(0) translate(4 207)">
<title>dependencies</title>
<polygon fill="white" stroke="transparent" points="-4,4 -4,-207 910,-207 910,4 -4,4"/>
<text text-anchor="start" x="432.01" y="-42.4" font-family="sans-serif" font-weight="bold" font-size="14.00">Legend</text>
<polygon fill="#ffffb3" stroke="transparent" points="219,-10 219,-30 239,-30 239,-10 219,-10"/>
<text text-anchor="start" x="242.63" y="-15.4" font-family="sans-serif" font-size="14.00"> &#160;Declarations</text>
<polygon fill="#8dd3c7" stroke="transparent" points="332,-10 332,-30 352,-30 352,-10 332,-10"/>
<text text-anchor="start" x="355.73" y="-15.4" font-family="sans-serif" font-size="14.00"> &#160;Module</text>
<polygon fill="#80b1d3" stroke="transparent" points="418,-10 418,-30 438,-30 438,-10 418,-10"/>
<text text-anchor="start" x="441.78" y="-15.4" font-family="sans-serif" font-size="14.00"> &#160;Bootstrap</text>
<polygon fill="#fdb462" stroke="transparent" points="515,-10 515,-30 535,-30 535,-10 515,-10"/>
<text text-anchor="start" x="538.67" y="-15.4" font-family="sans-serif" font-size="14.00"> &#160;Providers</text>
<polygon fill="#fb8072" stroke="transparent" points="611,-10 611,-30 631,-30 631,-10 611,-10"/>
<text text-anchor="start" x="634.73" y="-15.4" font-family="sans-serif" font-size="14.00"> &#160;Exports</text>
<g id="clust1" class="cluster">
<title>cluster_BlogModule</title>
<polygon fill="none" stroke="black" stroke-dasharray="1,5" points="8,-70 8,-195 898,-195 898,-70 8,-70"/>
</g>
<g id="clust2" class="cluster">
<title>cluster_BlogModule_declarations</title>
<polygon fill="none" stroke="black" points="158,-78 158,-130 890,-130 890,-78 158,-78"/>
</g>
<g id="clust11" class="cluster">
<title>cluster_BlogModule_providers</title>
<polygon fill="none" stroke="black" points="16,-78 16,-130 150,-130 150,-78 16,-78"/>
</g>
<!-- BlogComponent -->
<g id="node1" class="node">
<title>BlogComponent</title>
<polygon fill="#ffffb3" stroke="black" points="882.06,-122 773.94,-122 773.94,-86 882.06,-86 882.06,-122"/>
<text text-anchor="middle" x="828" y="-99.8" font-family="Times,serif" font-size="14.00">BlogComponent</text>
</g>
<!-- BlogModule -->
<g id="node6" class="node">
<title>BlogModule</title>
<polygon fill="#8dd3c7" stroke="black" points="512.28,-187 509.28,-191 488.28,-191 485.28,-187 425.72,-187 425.72,-151 512.28,-151 512.28,-187"/>
<text text-anchor="middle" x="469" y="-164.8" font-family="Times,serif" font-size="14.00">BlogModule</text>
</g>
<!-- BlogComponent&#45;&gt;BlogModule -->
<g id="edge1" class="edge">
<title>BlogComponent&#45;&gt;BlogModule</title>
<path fill="none" stroke="black" d="M828,-122.28C828,-143.32 828,-175 828,-175 828,-175 522.3,-175 522.3,-175"/>
<polygon fill="black" stroke="black" points="522.3,-171.5 512.3,-175 522.3,-178.5 522.3,-171.5"/>
</g>
<!-- BlogListComponent -->
<g id="node2" class="node">
<title>BlogListComponent</title>
<polygon fill="#ffffb3" stroke="black" points="756.34,-122 625.66,-122 625.66,-86 756.34,-86 756.34,-122"/>
<text text-anchor="middle" x="691" y="-99.8" font-family="Times,serif" font-size="14.00">BlogListComponent</text>
</g>
<!-- BlogListComponent&#45;&gt;BlogModule -->
<g id="edge2" class="edge">
<title>BlogListComponent&#45;&gt;BlogModule</title>
<path fill="none" stroke="black" d="M691,-122.02C691,-139.37 691,-163 691,-163 691,-163 522.33,-163 522.33,-163"/>
<polygon fill="black" stroke="black" points="522.33,-159.5 512.33,-163 522.33,-166.5 522.33,-159.5"/>
</g>
<!-- BlogPageComponent -->
<g id="node3" class="node">
<title>BlogPageComponent</title>
<polygon fill="#ffffb3" stroke="black" points="607.77,-122 472.23,-122 472.23,-86 607.77,-86 607.77,-122"/>
<text text-anchor="middle" x="540" y="-99.8" font-family="Times,serif" font-size="14.00">BlogPageComponent</text>
</g>
<!-- BlogPageComponent&#45;&gt;BlogModule -->
<g id="edge3" class="edge">
<title>BlogPageComponent&#45;&gt;BlogModule</title>
<path fill="none" stroke="black" d="M492.25,-122.11C492.25,-122.11 492.25,-140.99 492.25,-140.99"/>
<polygon fill="black" stroke="black" points="488.75,-140.99 492.25,-150.99 495.75,-140.99 488.75,-140.99"/>
</g>
<!-- FilterComponent -->
<g id="node4" class="node">
<title>FilterComponent</title>
<polygon fill="#ffffb3" stroke="black" points="453.66,-122 342.34,-122 342.34,-86 453.66,-86 453.66,-122"/>
<text text-anchor="middle" x="398" y="-99.8" font-family="Times,serif" font-size="14.00">FilterComponent</text>
</g>
<!-- FilterComponent&#45;&gt;BlogModule -->
<g id="edge4" class="edge">
<title>FilterComponent&#45;&gt;BlogModule</title>
<path fill="none" stroke="black" d="M439.72,-122.11C439.72,-122.11 439.72,-140.99 439.72,-140.99"/>
<polygon fill="black" stroke="black" points="436.22,-140.99 439.72,-150.99 443.22,-140.99 436.22,-140.99"/>
</g>
<!-- PopularBlogsComponent -->
<g id="node5" class="node">
<title>PopularBlogsComponent</title>
<polygon fill="#ffffb3" stroke="black" points="323.55,-122 166.45,-122 166.45,-86 323.55,-86 323.55,-122"/>
<text text-anchor="middle" x="245" y="-99.8" font-family="Times,serif" font-size="14.00">PopularBlogsComponent</text>
</g>
<!-- PopularBlogsComponent&#45;&gt;BlogModule -->
<g id="edge5" class="edge">
<title>PopularBlogsComponent&#45;&gt;BlogModule</title>
<path fill="none" stroke="black" d="M245,-122.02C245,-139.37 245,-163 245,-163 245,-163 415.54,-163 415.54,-163"/>
<polygon fill="black" stroke="black" points="415.54,-166.5 425.54,-163 415.54,-159.5 415.54,-166.5"/>
</g>
<!-- BlogService -->
<g id="node7" class="node">
<title>BlogService</title>
<ellipse fill="#fdb462" stroke="black" cx="83" cy="-104" rx="58.55" ry="18"/>
<text text-anchor="middle" x="83" y="-99.8" font-family="Times,serif" font-size="14.00">BlogService</text>
</g>
<!-- BlogService&#45;&gt;BlogModule -->
<g id="edge6" class="edge">
<title>BlogService&#45;&gt;BlogModule</title>
<path fill="none" stroke="black" d="M83,-122.28C83,-143.32 83,-175 83,-175 83,-175 415.47,-175 415.47,-175"/>
<polygon fill="black" stroke="black" points="415.47,-178.5 425.47,-175 415.47,-171.5 415.47,-178.5"/>
</g>
</g>
</svg>
