<?xml version="1.0" encoding="UTF-8" standalone="no"?>
<!DOCTYPE svg PUBLIC "-//W3C//DTD SVG 1.1//EN"
 "http://www.w3.org/Graphics/SVG/1.1/DTD/svg11.dtd">
<!-- Generated by graphviz version 2.47.0 (20210316.0004)
 -->
<!-- Title: dependencies Pages: 1 -->
<svg width="504pt" height="211pt"
 viewBox="0.00 0.00 504.00 211.00" xmlns="http://www.w3.org/2000/svg" xmlns:xlink="http://www.w3.org/1999/xlink">
<g id="graph0" class="graph" transform="scale(1 1) rotate(0) translate(4 207)">
<title>dependencies</title>
<polygon fill="white" stroke="transparent" points="-4,4 -4,-207 500,-207 500,4 -4,4"/>
<text text-anchor="start" x="227.01" y="-42.4" font-family="sans-serif" font-weight="bold" font-size="14.00">Legend</text>
<polygon fill="#ffffb3" stroke="transparent" points="14,-10 14,-30 34,-30 34,-10 14,-10"/>
<text text-anchor="start" x="37.63" y="-15.4" font-family="sans-serif" font-size="14.00"> &#160;Declarations</text>
<polygon fill="#8dd3c7" stroke="transparent" points="127,-10 127,-30 147,-30 147,-10 127,-10"/>
<text text-anchor="start" x="150.73" y="-15.4" font-family="sans-serif" font-size="14.00"> &#160;Module</text>
<polygon fill="#80b1d3" stroke="transparent" points="213,-10 213,-30 233,-30 233,-10 213,-10"/>
<text text-anchor="start" x="236.78" y="-15.4" font-family="sans-serif" font-size="14.00"> &#160;Bootstrap</text>
<polygon fill="#fdb462" stroke="transparent" points="310,-10 310,-30 330,-30 330,-10 310,-10"/>
<text text-anchor="start" x="333.67" y="-15.4" font-family="sans-serif" font-size="14.00"> &#160;Providers</text>
<polygon fill="#fb8072" stroke="transparent" points="406,-10 406,-30 426,-30 426,-10 406,-10"/>
<text text-anchor="start" x="429.73" y="-15.4" font-family="sans-serif" font-size="14.00"> &#160;Exports</text>
<g id="clust1" class="cluster">
<title>cluster_AboutModule</title>
<polygon fill="none" stroke="black" stroke-dasharray="1,5" points="22.5,-70 22.5,-195 473.5,-195 473.5,-70 22.5,-70"/>
</g>
<g id="clust2" class="cluster">
<title>cluster_AboutModule_declarations</title>
<polygon fill="none" stroke="black" points="30.5,-78 30.5,-130 465.5,-130 465.5,-78 30.5,-78"/>
</g>
<!-- AboutComponent -->
<g id="node1" class="node">
<title>AboutComponent</title>
<polygon fill="#ffffb3" stroke="black" points="457.83,-122 341.17,-122 341.17,-86 457.83,-86 457.83,-122"/>
<text text-anchor="middle" x="399.5" y="-99.8" font-family="Times,serif" font-size="14.00">AboutComponent</text>
</g>
<!-- AboutModule -->
<g id="node4" class="node">
<title>AboutModule</title>
<polygon fill="#8dd3c7" stroke="black" points="307.55,-187 304.55,-191 283.55,-191 280.55,-187 213.45,-187 213.45,-151 307.55,-151 307.55,-187"/>
<text text-anchor="middle" x="260.5" y="-164.8" font-family="Times,serif" font-size="14.00">AboutModule</text>
</g>
<!-- AboutComponent&#45;&gt;AboutModule -->
<g id="edge1" class="edge">
<title>AboutComponent&#45;&gt;AboutModule</title>
<path fill="none" stroke="black" d="M399.5,-122.11C399.5,-141.34 399.5,-169 399.5,-169 399.5,-169 317.56,-169 317.56,-169"/>
<polygon fill="black" stroke="black" points="317.56,-165.5 307.56,-169 317.56,-172.5 317.56,-165.5"/>
</g>
<!-- ContactComponent -->
<g id="node2" class="node">
<title>ContactComponent</title>
<polygon fill="#ffffb3" stroke="black" points="322.88,-122 198.12,-122 198.12,-86 322.88,-86 322.88,-122"/>
<text text-anchor="middle" x="260.5" y="-99.8" font-family="Times,serif" font-size="14.00">ContactComponent</text>
</g>
<!-- ContactComponent&#45;&gt;AboutModule -->
<g id="edge2" class="edge">
<title>ContactComponent&#45;&gt;AboutModule</title>
<path fill="none" stroke="black" d="M260.5,-122.11C260.5,-122.11 260.5,-140.99 260.5,-140.99"/>
<polygon fill="black" stroke="black" points="257,-140.99 260.5,-150.99 264,-140.99 257,-140.99"/>
</g>
<!-- NewsletterComponent -->
<g id="node3" class="node">
<title>NewsletterComponent</title>
<polygon fill="#ffffb3" stroke="black" points="180.47,-122 38.53,-122 38.53,-86 180.47,-86 180.47,-122"/>
<text text-anchor="middle" x="109.5" y="-99.8" font-family="Times,serif" font-size="14.00">NewsletterComponent</text>
</g>
<!-- NewsletterComponent&#45;&gt;AboutModule -->
<g id="edge3" class="edge">
<title>NewsletterComponent&#45;&gt;AboutModule</title>
<path fill="none" stroke="black" d="M109.5,-122.11C109.5,-141.34 109.5,-169 109.5,-169 109.5,-169 203.14,-169 203.14,-169"/>
<polygon fill="black" stroke="black" points="203.14,-172.5 213.14,-169 203.14,-165.5 203.14,-172.5"/>
</g>
</g>
</svg>
