<?xml version="1.0" encoding="UTF-8" standalone="no"?>
<!DOCTYPE svg PUBLIC "-//W3C//DTD SVG 1.1//EN"
 "http://www.w3.org/Graphics/SVG/1.1/DTD/svg11.dtd">
<!-- Generated by graphviz version 2.47.0 (20210316.0004)
 -->
<!-- Title: dependencies Pages: 1 -->
<svg width="950pt" height="211pt"
 viewBox="0.00 0.00 950.00 211.00" xmlns="http://www.w3.org/2000/svg" xmlns:xlink="http://www.w3.org/1999/xlink">
<g id="graph0" class="graph" transform="scale(1 1) rotate(0) translate(4 207)">
<title>dependencies</title>
<polygon fill="white" stroke="transparent" points="-4,4 -4,-207 946,-207 946,4 -4,4"/>
<text text-anchor="start" x="450.01" y="-42.4" font-family="sans-serif" font-weight="bold" font-size="14.00">Legend</text>
<polygon fill="#ffffb3" stroke="transparent" points="237,-10 237,-30 257,-30 257,-10 237,-10"/>
<text text-anchor="start" x="260.63" y="-15.4" font-family="sans-serif" font-size="14.00"> &#160;Declarations</text>
<polygon fill="#8dd3c7" stroke="transparent" points="350,-10 350,-30 370,-30 370,-10 350,-10"/>
<text text-anchor="start" x="373.73" y="-15.4" font-family="sans-serif" font-size="14.00"> &#160;Module</text>
<polygon fill="#80b1d3" stroke="transparent" points="436,-10 436,-30 456,-30 456,-10 436,-10"/>
<text text-anchor="start" x="459.78" y="-15.4" font-family="sans-serif" font-size="14.00"> &#160;Bootstrap</text>
<polygon fill="#fdb462" stroke="transparent" points="533,-10 533,-30 553,-30 553,-10 533,-10"/>
<text text-anchor="start" x="556.67" y="-15.4" font-family="sans-serif" font-size="14.00"> &#160;Providers</text>
<polygon fill="#fb8072" stroke="transparent" points="629,-10 629,-30 649,-30 649,-10 629,-10"/>
<text text-anchor="start" x="652.73" y="-15.4" font-family="sans-serif" font-size="14.00"> &#160;Exports</text>
<g id="clust1" class="cluster">
<title>cluster_AuthModule</title>
<polygon fill="none" stroke="black" stroke-dasharray="1,5" points="8,-70 8,-195 934,-195 934,-70 8,-70"/>
</g>
<g id="clust2" class="cluster">
<title>cluster_AuthModule_declarations</title>
<polygon fill="none" stroke="black" points="172,-78 172,-130 926,-130 926,-78 172,-78"/>
</g>
<g id="clust8" class="cluster">
<title>cluster_AuthModule_imports</title>
<polygon fill="none" stroke="black" points="16,-78 16,-130 164,-130 164,-78 16,-78"/>
</g>
<!-- AuthComponent -->
<g id="node1" class="node">
<title>AuthComponent</title>
<polygon fill="#ffffb3" stroke="black" points="917.83,-122 808.17,-122 808.17,-86 917.83,-86 917.83,-122"/>
<text text-anchor="middle" x="863" y="-99.8" font-family="Times,serif" font-size="14.00">AuthComponent</text>
</g>
<!-- AuthModule -->
<g id="node6" class="node">
<title>AuthModule</title>
<polygon fill="#8dd3c7" stroke="black" points="521.55,-187 518.55,-191 497.55,-191 494.55,-187 434.45,-187 434.45,-151 521.55,-151 521.55,-187"/>
<text text-anchor="middle" x="478" y="-164.8" font-family="Times,serif" font-size="14.00">AuthModule</text>
</g>
<!-- AuthComponent&#45;&gt;AuthModule -->
<g id="edge1" class="edge">
<title>AuthComponent&#45;&gt;AuthModule</title>
<path fill="none" stroke="black" d="M863,-122.28C863,-143.32 863,-175 863,-175 863,-175 531.79,-175 531.79,-175"/>
<polygon fill="black" stroke="black" points="531.79,-171.5 521.79,-175 531.79,-178.5 531.79,-171.5"/>
</g>
<!-- ForgotPasswordComponent -->
<g id="node2" class="node">
<title>ForgotPasswordComponent</title>
<polygon fill="#ffffb3" stroke="black" points="790.32,-122 617.68,-122 617.68,-86 790.32,-86 790.32,-122"/>
<text text-anchor="middle" x="704" y="-99.8" font-family="Times,serif" font-size="14.00">ForgotPasswordComponent</text>
</g>
<!-- ForgotPasswordComponent&#45;&gt;AuthModule -->
<g id="edge2" class="edge">
<title>ForgotPasswordComponent&#45;&gt;AuthModule</title>
<path fill="none" stroke="black" d="M704,-122.02C704,-139.37 704,-163 704,-163 704,-163 531.58,-163 531.58,-163"/>
<polygon fill="black" stroke="black" points="531.58,-159.5 521.58,-163 531.58,-166.5 531.58,-159.5"/>
</g>
<!-- LoginComponent -->
<g id="node3" class="node">
<title>LoginComponent</title>
<polygon fill="#ffffb3" stroke="black" points="599.28,-122 484.72,-122 484.72,-86 599.28,-86 599.28,-122"/>
<text text-anchor="middle" x="542" y="-99.8" font-family="Times,serif" font-size="14.00">LoginComponent</text>
</g>
<!-- LoginComponent&#45;&gt;AuthModule -->
<g id="edge3" class="edge">
<title>LoginComponent&#45;&gt;AuthModule</title>
<path fill="none" stroke="black" d="M503.19,-122.11C503.19,-122.11 503.19,-140.99 503.19,-140.99"/>
<polygon fill="black" stroke="black" points="499.69,-140.99 503.19,-150.99 506.69,-140.99 499.69,-140.99"/>
</g>
<!-- OtpComponent -->
<g id="node4" class="node">
<title>OtpComponent</title>
<polygon fill="#ffffb3" stroke="black" points="466.33,-122 363.67,-122 363.67,-86 466.33,-86 466.33,-122"/>
<text text-anchor="middle" x="415" y="-99.8" font-family="Times,serif" font-size="14.00">OtpComponent</text>
</g>
<!-- OtpComponent&#45;&gt;AuthModule -->
<g id="edge4" class="edge">
<title>OtpComponent&#45;&gt;AuthModule</title>
<path fill="none" stroke="black" d="M450.2,-122.11C450.2,-122.11 450.2,-140.99 450.2,-140.99"/>
<polygon fill="black" stroke="black" points="446.7,-140.99 450.2,-150.99 453.7,-140.99 446.7,-140.99"/>
</g>
<!-- ResetPasswordComponent -->
<g id="node5" class="node">
<title>ResetPasswordComponent</title>
<polygon fill="#ffffb3" stroke="black" points="346.09,-122 179.91,-122 179.91,-86 346.09,-86 346.09,-122"/>
<text text-anchor="middle" x="263" y="-99.8" font-family="Times,serif" font-size="14.00">ResetPasswordComponent</text>
</g>
<!-- ResetPasswordComponent&#45;&gt;AuthModule -->
<g id="edge5" class="edge">
<title>ResetPasswordComponent&#45;&gt;AuthModule</title>
<path fill="none" stroke="black" d="M263,-122.02C263,-139.37 263,-163 263,-163 263,-163 424.23,-163 424.23,-163"/>
<polygon fill="black" stroke="black" points="424.23,-166.5 434.23,-163 424.23,-159.5 424.23,-166.5"/>
</g>
<!-- AuthRoutingModule -->
<g id="node7" class="node">
<title>AuthRoutingModule</title>
<polygon fill="#8dd3c7" stroke="black" points="156.17,-122 153.17,-126 132.17,-126 129.17,-122 23.83,-122 23.83,-86 156.17,-86 156.17,-122"/>
<text text-anchor="middle" x="90" y="-99.8" font-family="Times,serif" font-size="14.00">AuthRoutingModule</text>
</g>
<!-- AuthRoutingModule&#45;&gt;AuthModule -->
<g id="edge6" class="edge">
<title>AuthRoutingModule&#45;&gt;AuthModule</title>
<path fill="none" stroke="black" d="M90,-122.28C90,-143.32 90,-175 90,-175 90,-175 424.25,-175 424.25,-175"/>
<polygon fill="black" stroke="black" points="424.25,-178.5 434.25,-175 424.25,-171.5 424.25,-178.5"/>
</g>
</g>
</svg>
