<?xml version="1.0" encoding="UTF-8" standalone="no"?>
<!DOCTYPE svg PUBLIC "-//W3C//DTD SVG 1.1//EN"
 "http://www.w3.org/Graphics/SVG/1.1/DTD/svg11.dtd">
<!-- Generated by graphviz version 2.47.0 (20210316.0004)
 -->
<!-- Title: dependencies Pages: 1 -->
<svg width="5216pt" height="284pt"
 viewBox="0.00 0.00 5216.00 284.00" xmlns="http://www.w3.org/2000/svg" xmlns:xlink="http://www.w3.org/1999/xlink">
<g id="graph0" class="graph" transform="scale(1 1) rotate(0) translate(4 280)">
<title>dependencies</title>
<polygon fill="white" stroke="transparent" points="-4,4 -4,-280 5212,-280 5212,4 -4,4"/>
<text text-anchor="start" x="2583.01" y="-42.4" font-family="sans-serif" font-weight="bold" font-size="14.00">Legend</text>
<polygon fill="#ffffb3" stroke="transparent" points="2370,-10 2370,-30 2390,-30 2390,-10 2370,-10"/>
<text text-anchor="start" x="2393.63" y="-15.4" font-family="sans-serif" font-size="14.00"> &#160;Declarations</text>
<polygon fill="#8dd3c7" stroke="transparent" points="2483,-10 2483,-30 2503,-30 2503,-10 2483,-10"/>
<text text-anchor="start" x="2506.73" y="-15.4" font-family="sans-serif" font-size="14.00"> &#160;Module</text>
<polygon fill="#80b1d3" stroke="transparent" points="2569,-10 2569,-30 2589,-30 2589,-10 2569,-10"/>
<text text-anchor="start" x="2592.78" y="-15.4" font-family="sans-serif" font-size="14.00"> &#160;Bootstrap</text>
<polygon fill="#fdb462" stroke="transparent" points="2666,-10 2666,-30 2686,-30 2686,-10 2666,-10"/>
<text text-anchor="start" x="2689.67" y="-15.4" font-family="sans-serif" font-size="14.00"> &#160;Providers</text>
<polygon fill="#fb8072" stroke="transparent" points="2762,-10 2762,-30 2782,-30 2782,-10 2762,-10"/>
<text text-anchor="start" x="2785.73" y="-15.4" font-family="sans-serif" font-size="14.00"> &#160;Exports</text>
<g id="clust1" class="cluster">
<title>cluster_AboutModule</title>
<polygon fill="none" stroke="black" stroke-dasharray="1,5" points="8,-70 8,-195 459,-195 459,-70 8,-70"/>
</g>
<g id="clust2" class="cluster">
<title>cluster_AboutModule_declarations</title>
<polygon fill="none" stroke="black" points="16,-78 16,-130 451,-130 451,-78 16,-78"/>
</g>
<g id="clust10" class="cluster">
<title>cluster_ActivitiesModule</title>
<polygon fill="none" stroke="black" stroke-dasharray="1,5" points="467,-70 467,-260 815,-260 815,-70 467,-70"/>
</g>
<g id="clust11" class="cluster">
<title>cluster_ActivitiesModule_declarations</title>
<polygon fill="none" stroke="black" points="655,-143 655,-195 807,-195 807,-143 655,-143"/>
</g>
<g id="clust12" class="cluster">
<title>cluster_ActivitiesModule_ActivitiesComponent_providers</title>
<polygon fill="none" stroke="black" points="613,-78 613,-130 807,-130 807,-78 613,-78"/>
</g>
<g id="clust16" class="cluster">
<title>cluster_ActivitiesModule_providers</title>
<polygon fill="none" stroke="black" points="475,-143 475,-195 647,-195 647,-143 475,-143"/>
</g>
<g id="clust17" class="cluster">
<title>cluster_AppModule</title>
<polygon fill="none" stroke="black" stroke-dasharray="1,5" points="823,-70 823,-268 2133,-268 2133,-70 823,-70"/>
</g>
<g id="clust18" class="cluster">
<title>cluster_AppModule_declarations</title>
<polygon fill="none" stroke="black" points="983,-78 983,-130 2125,-130 2125,-78 983,-78"/>
</g>
<g id="clust27" class="cluster">
<title>cluster_AppModule_imports</title>
<polygon fill="none" stroke="black" points="831,-78 831,-130 975,-130 975,-78 831,-78"/>
</g>
<g id="clust29" class="cluster">
<title>cluster_AppModule_bootstrap</title>
<polygon fill="none" stroke="black" points="1444,-208 1444,-260 1568,-260 1568,-208 1444,-208"/>
</g>
<g id="clust37" class="cluster">
<title>cluster_AuthModule</title>
<polygon fill="none" stroke="black" stroke-dasharray="1,5" points="2141,-70 2141,-195 3067,-195 3067,-70 2141,-70"/>
</g>
<g id="clust38" class="cluster">
<title>cluster_AuthModule_declarations</title>
<polygon fill="none" stroke="black" points="2305,-78 2305,-130 3059,-130 3059,-78 2305,-78"/>
</g>
<g id="clust44" class="cluster">
<title>cluster_AuthModule_imports</title>
<polygon fill="none" stroke="black" points="2149,-78 2149,-130 2297,-130 2297,-78 2149,-78"/>
</g>
<g id="clust54" class="cluster">
<title>cluster_BlogModule</title>
<polygon fill="none" stroke="black" stroke-dasharray="1,5" points="3075,-70 3075,-195 3965,-195 3965,-70 3075,-70"/>
</g>
<g id="clust55" class="cluster">
<title>cluster_BlogModule_declarations</title>
<polygon fill="none" stroke="black" points="3225,-78 3225,-130 3957,-130 3957,-78 3225,-78"/>
</g>
<g id="clust64" class="cluster">
<title>cluster_BlogModule_providers</title>
<polygon fill="none" stroke="black" points="3083,-78 3083,-130 3217,-130 3217,-78 3083,-78"/>
</g>
<g id="clust65" class="cluster">
<title>cluster_GalleryModule</title>
<polygon fill="none" stroke="black" stroke-dasharray="1,5" points="3973,-70 3973,-195 4129,-195 4129,-70 3973,-70"/>
</g>
<g id="clust66" class="cluster">
<title>cluster_GalleryModule_declarations</title>
<polygon fill="none" stroke="black" points="3981,-78 3981,-130 4121,-130 4121,-78 3981,-78"/>
</g>
<g id="clust72" class="cluster">
<title>cluster_HomeModule</title>
<polygon fill="none" stroke="black" stroke-dasharray="1,5" points="4137,-70 4137,-195 4844,-195 4844,-70 4137,-70"/>
</g>
<g id="clust73" class="cluster">
<title>cluster_HomeModule_declarations</title>
<polygon fill="none" stroke="black" points="4145,-78 4145,-130 4836,-130 4836,-78 4145,-78"/>
</g>
<g id="clust82" class="cluster">
<title>cluster_MembersModule</title>
<polygon fill="none" stroke="black" stroke-dasharray="1,5" points="4852,-70 4852,-195 5200,-195 5200,-70 4852,-70"/>
</g>
<g id="clust83" class="cluster">
<title>cluster_MembersModule_declarations</title>
<polygon fill="none" stroke="black" points="5042,-78 5042,-130 5192,-130 5192,-78 5042,-78"/>
</g>
<g id="clust85" class="cluster">
<title>cluster_MembersModule_imports</title>
<polygon fill="none" stroke="black" points="4860,-78 4860,-130 5034,-130 5034,-78 4860,-78"/>
</g>
<!-- AboutComponent -->
<g id="node1" class="node">
<title>AboutComponent</title>
<polygon fill="#ffffb3" stroke="black" points="443.33,-122 326.67,-122 326.67,-86 443.33,-86 443.33,-122"/>
<text text-anchor="middle" x="385" y="-99.8" font-family="Times,serif" font-size="14.00">AboutComponent</text>
</g>
<!-- AboutModule -->
<g id="node4" class="node">
<title>AboutModule</title>
<polygon fill="#8dd3c7" stroke="black" points="293.05,-187 290.05,-191 269.05,-191 266.05,-187 198.95,-187 198.95,-151 293.05,-151 293.05,-187"/>
<text text-anchor="middle" x="246" y="-164.8" font-family="Times,serif" font-size="14.00">AboutModule</text>
</g>
<!-- AboutComponent&#45;&gt;AboutModule -->
<g id="edge1" class="edge">
<title>AboutComponent&#45;&gt;AboutModule</title>
<path fill="none" stroke="black" d="M385,-122.11C385,-141.34 385,-169 385,-169 385,-169 303.06,-169 303.06,-169"/>
<polygon fill="black" stroke="black" points="303.06,-165.5 293.06,-169 303.06,-172.5 303.06,-165.5"/>
</g>
<!-- ContactComponent -->
<g id="node2" class="node">
<title>ContactComponent</title>
<polygon fill="#ffffb3" stroke="black" points="308.38,-122 183.62,-122 183.62,-86 308.38,-86 308.38,-122"/>
<text text-anchor="middle" x="246" y="-99.8" font-family="Times,serif" font-size="14.00">ContactComponent</text>
</g>
<!-- ContactComponent&#45;&gt;AboutModule -->
<g id="edge2" class="edge">
<title>ContactComponent&#45;&gt;AboutModule</title>
<path fill="none" stroke="black" d="M246,-122.11C246,-122.11 246,-140.99 246,-140.99"/>
<polygon fill="black" stroke="black" points="242.5,-140.99 246,-150.99 249.5,-140.99 242.5,-140.99"/>
</g>
<!-- NewsletterComponent -->
<g id="node3" class="node">
<title>NewsletterComponent</title>
<polygon fill="#ffffb3" stroke="black" points="165.97,-122 24.03,-122 24.03,-86 165.97,-86 165.97,-122"/>
<text text-anchor="middle" x="95" y="-99.8" font-family="Times,serif" font-size="14.00">NewsletterComponent</text>
</g>
<!-- NewsletterComponent&#45;&gt;AboutModule -->
<g id="edge3" class="edge">
<title>NewsletterComponent&#45;&gt;AboutModule</title>
<path fill="none" stroke="black" d="M95,-122.11C95,-141.34 95,-169 95,-169 95,-169 188.64,-169 188.64,-169"/>
<polygon fill="black" stroke="black" points="188.64,-172.5 198.64,-169 188.64,-165.5 188.64,-172.5"/>
</g>
<!-- ActivitiesComponent -->
<g id="node5" class="node">
<title>ActivitiesComponent</title>
<polygon fill="#ffffb3" stroke="black" points="798.77,-187 663.23,-187 663.23,-151 798.77,-151 798.77,-187"/>
<text text-anchor="middle" x="731" y="-164.8" font-family="Times,serif" font-size="14.00">ActivitiesComponent</text>
</g>
<!-- ActivitiesModule -->
<g id="node6" class="node">
<title>ActivitiesModule</title>
<polygon fill="#8dd3c7" stroke="black" points="702.98,-252 699.98,-256 678.98,-256 675.98,-252 589.02,-252 589.02,-216 702.98,-216 702.98,-252"/>
<text text-anchor="middle" x="646" y="-229.8" font-family="Times,serif" font-size="14.00">ActivitiesModule</text>
</g>
<!-- ActivitiesComponent&#45;&gt;ActivitiesModule -->
<g id="edge4" class="edge">
<title>ActivitiesComponent&#45;&gt;ActivitiesModule</title>
<path fill="none" stroke="black" d="M683.05,-187.11C683.05,-187.11 683.05,-205.99 683.05,-205.99"/>
<polygon fill="black" stroke="black" points="679.55,-205.99 683.05,-215.99 686.55,-205.99 679.55,-205.99"/>
</g>
<!-- NgbCarouselConfig -->
<g id="node7" class="node">
<title>NgbCarouselConfig</title>
<ellipse fill="#fdb462" stroke="black" cx="710" cy="-104" rx="88.63" ry="18"/>
<text text-anchor="middle" x="710" y="-99.8" font-family="Times,serif" font-size="14.00">NgbCarouselConfig</text>
</g>
<!-- NgbCarouselConfig&#45;&gt;ActivitiesComponent -->
<g id="edge5" class="edge">
<title>NgbCarouselConfig&#45;&gt;ActivitiesComponent</title>
<path fill="none" stroke="black" d="M730.97,-121.76C730.97,-121.76 730.97,-140.81 730.97,-140.81"/>
<polygon fill="black" stroke="black" points="727.47,-140.81 730.97,-150.81 734.47,-140.81 727.47,-140.81"/>
</g>
<!-- ActivitiesService -->
<g id="node8" class="node">
<title>ActivitiesService</title>
<ellipse fill="#fdb462" stroke="black" cx="561" cy="-169" rx="77.58" ry="18"/>
<text text-anchor="middle" x="561" y="-164.8" font-family="Times,serif" font-size="14.00">ActivitiesService</text>
</g>
<!-- ActivitiesService&#45;&gt;ActivitiesModule -->
<g id="edge6" class="edge">
<title>ActivitiesService&#45;&gt;ActivitiesModule</title>
<path fill="none" stroke="black" d="M613.77,-182.47C613.77,-182.47 613.77,-205.86 613.77,-205.86"/>
<polygon fill="black" stroke="black" points="610.27,-205.86 613.77,-215.86 617.27,-205.86 610.27,-205.86"/>
</g>
<!-- AppComponent -->
<g id="node9" class="node">
<title>AppComponent</title>
<polygon fill="#ffffb3" stroke="black" points="2116.94,-122 2011.06,-122 2011.06,-86 2116.94,-86 2116.94,-122"/>
<text text-anchor="middle" x="2064" y="-99.8" font-family="Times,serif" font-size="14.00">AppComponent</text>
</g>
<!-- AppModule -->
<g id="node17" class="node">
<title>AppModule</title>
<polygon fill="#8dd3c7" stroke="black" points="1547.66,-187 1544.66,-191 1523.66,-191 1520.66,-187 1464.34,-187 1464.34,-151 1547.66,-151 1547.66,-187"/>
<text text-anchor="middle" x="1506" y="-164.8" font-family="Times,serif" font-size="14.00">AppModule</text>
</g>
<!-- AppComponent&#45;&gt;AppModule -->
<g id="edge7" class="edge">
<title>AppComponent&#45;&gt;AppModule</title>
<path fill="none" stroke="black" d="M2064,-122.09C2064,-145.13 2064,-182 2064,-182 2064,-182 1557.94,-182 1557.94,-182"/>
<polygon fill="black" stroke="black" points="1557.94,-178.5 1547.94,-182 1557.94,-185.5 1557.94,-178.5"/>
</g>
<!-- ErrorsComponent -->
<g id="node10" class="node">
<title>ErrorsComponent</title>
<polygon fill="#ffffb3" stroke="black" points="1993.31,-122 1876.69,-122 1876.69,-86 1993.31,-86 1993.31,-122"/>
<text text-anchor="middle" x="1935" y="-99.8" font-family="Times,serif" font-size="14.00">ErrorsComponent</text>
</g>
<!-- ErrorsComponent&#45;&gt;AppModule -->
<g id="edge8" class="edge">
<title>ErrorsComponent&#45;&gt;AppModule</title>
<path fill="none" stroke="black" d="M1935,-122.04C1935,-143.66 1935,-177 1935,-177 1935,-177 1557.92,-177 1557.92,-177"/>
<polygon fill="black" stroke="black" points="1557.92,-173.5 1547.92,-177 1557.92,-180.5 1557.92,-173.5"/>
</g>
<!-- FooterComponent -->
<g id="node11" class="node">
<title>FooterComponent</title>
<polygon fill="#ffffb3" stroke="black" points="1858.88,-122 1741.12,-122 1741.12,-86 1858.88,-86 1858.88,-122"/>
<text text-anchor="middle" x="1800" y="-99.8" font-family="Times,serif" font-size="14.00">FooterComponent</text>
</g>
<!-- FooterComponent&#45;&gt;AppModule -->
<g id="edge9" class="edge">
<title>FooterComponent&#45;&gt;AppModule</title>
<path fill="none" stroke="black" d="M1800,-122.22C1800,-142.37 1800,-172 1800,-172 1800,-172 1557.81,-172 1557.81,-172"/>
<polygon fill="black" stroke="black" points="1557.81,-168.5 1547.81,-172 1557.81,-175.5 1557.81,-168.5"/>
</g>
<!-- HeaderComponent -->
<g id="node12" class="node">
<title>HeaderComponent</title>
<polygon fill="#ffffb3" stroke="black" points="1722.74,-122 1601.26,-122 1601.26,-86 1722.74,-86 1722.74,-122"/>
<text text-anchor="middle" x="1662" y="-99.8" font-family="Times,serif" font-size="14.00">HeaderComponent</text>
</g>
<!-- HeaderComponent&#45;&gt;AppModule -->
<g id="edge10" class="edge">
<title>HeaderComponent&#45;&gt;AppModule</title>
<path fill="none" stroke="black" d="M1662,-122.22C1662,-140.83 1662,-167 1662,-167 1662,-167 1557.81,-167 1557.81,-167"/>
<polygon fill="black" stroke="black" points="1557.81,-163.5 1547.81,-167 1557.81,-170.5 1557.81,-163.5"/>
</g>
<!-- MaintenanceComponent -->
<g id="node13" class="node">
<title>MaintenanceComponent</title>
<polygon fill="#ffffb3" stroke="black" points="1582.63,-122 1429.37,-122 1429.37,-86 1582.63,-86 1582.63,-122"/>
<text text-anchor="middle" x="1506" y="-99.8" font-family="Times,serif" font-size="14.00">MaintenanceComponent</text>
</g>
<!-- MaintenanceComponent&#45;&gt;AppModule -->
<g id="edge11" class="edge">
<title>MaintenanceComponent&#45;&gt;AppModule</title>
<path fill="none" stroke="black" d="M1506,-122.11C1506,-122.11 1506,-140.99 1506,-140.99"/>
<polygon fill="black" stroke="black" points="1502.5,-140.99 1506,-150.99 1509.5,-140.99 1502.5,-140.99"/>
</g>
<!-- NotFoundComponent -->
<g id="node14" class="node">
<title>NotFoundComponent</title>
<polygon fill="#ffffb3" stroke="black" points="1411.11,-122 1272.89,-122 1272.89,-86 1411.11,-86 1411.11,-122"/>
<text text-anchor="middle" x="1342" y="-99.8" font-family="Times,serif" font-size="14.00">NotFoundComponent</text>
</g>
<!-- NotFoundComponent&#45;&gt;AppModule -->
<g id="edge12" class="edge">
<title>NotFoundComponent&#45;&gt;AppModule</title>
<path fill="none" stroke="black" d="M1342,-122.01C1342,-138.05 1342,-159 1342,-159 1342,-159 1454.19,-159 1454.19,-159"/>
<polygon fill="black" stroke="black" points="1454.19,-162.5 1464.19,-159 1454.19,-155.5 1454.19,-162.5"/>
</g>
<!-- OfflineComponent -->
<g id="node15" class="node">
<title>OfflineComponent</title>
<polygon fill="#ffffb3" stroke="black" points="1254.76,-122 1133.24,-122 1133.24,-86 1254.76,-86 1254.76,-122"/>
<text text-anchor="middle" x="1194" y="-99.8" font-family="Times,serif" font-size="14.00">OfflineComponent</text>
</g>
<!-- OfflineComponent&#45;&gt;AppModule -->
<g id="edge13" class="edge">
<title>OfflineComponent&#45;&gt;AppModule</title>
<path fill="none" stroke="black" d="M1194,-122.27C1194,-140.56 1194,-166 1194,-166 1194,-166 1454.25,-166 1454.25,-166"/>
<polygon fill="black" stroke="black" points="1454.25,-169.5 1464.25,-166 1454.25,-162.5 1454.25,-169.5"/>
</g>
<!-- SidebarComponent -->
<g id="node16" class="node">
<title>SidebarComponent</title>
<polygon fill="#ffffb3" stroke="black" points="1115.1,-122 990.9,-122 990.9,-86 1115.1,-86 1115.1,-122"/>
<text text-anchor="middle" x="1053" y="-99.8" font-family="Times,serif" font-size="14.00">SidebarComponent</text>
</g>
<!-- SidebarComponent&#45;&gt;AppModule -->
<g id="edge14" class="edge">
<title>SidebarComponent&#45;&gt;AppModule</title>
<path fill="none" stroke="black" d="M1053,-122.13C1053,-142.57 1053,-173 1053,-173 1053,-173 1454.19,-173 1454.19,-173"/>
<polygon fill="black" stroke="black" points="1454.19,-176.5 1464.19,-173 1454.19,-169.5 1454.19,-176.5"/>
</g>
<!-- AppComponent  -->
<g id="node19" class="node">
<title>AppComponent </title>
<polygon fill="#80b1d3" stroke="black" points="1560.44,-252 1451.56,-252 1451.56,-216 1560.44,-216 1560.44,-252"/>
<text text-anchor="middle" x="1506" y="-229.8" font-family="Times,serif" font-size="14.00">AppComponent </text>
</g>
<!-- AppModule&#45;&gt;AppComponent  -->
<g id="edge16" class="edge">
<title>AppModule&#45;&gt;AppComponent </title>
<path fill="none" stroke="black" stroke-dasharray="1,5" d="M1506,-187.11C1506,-187.11 1506,-205.99 1506,-205.99"/>
<polygon fill="black" stroke="black" points="1502.5,-205.99 1506,-215.99 1509.5,-205.99 1502.5,-205.99"/>
</g>
<!-- AppRoutingModule -->
<g id="node18" class="node">
<title>AppRoutingModule</title>
<polygon fill="#8dd3c7" stroke="black" points="967.27,-122 964.27,-126 943.27,-126 940.27,-122 838.73,-122 838.73,-86 967.27,-86 967.27,-122"/>
<text text-anchor="middle" x="903" y="-99.8" font-family="Times,serif" font-size="14.00">AppRoutingModule</text>
</g>
<!-- AppRoutingModule&#45;&gt;AppModule -->
<g id="edge15" class="edge">
<title>AppRoutingModule&#45;&gt;AppModule</title>
<path fill="none" stroke="black" d="M903,-122.01C903,-144.49 903,-180 903,-180 903,-180 1454.08,-180 1454.08,-180"/>
<polygon fill="black" stroke="black" points="1454.08,-183.5 1464.08,-180 1454.08,-176.5 1454.08,-183.5"/>
</g>
<!-- AuthComponent -->
<g id="node20" class="node">
<title>AuthComponent</title>
<polygon fill="#ffffb3" stroke="black" points="3050.83,-122 2941.17,-122 2941.17,-86 3050.83,-86 3050.83,-122"/>
<text text-anchor="middle" x="2996" y="-99.8" font-family="Times,serif" font-size="14.00">AuthComponent</text>
</g>
<!-- AuthModule -->
<g id="node25" class="node">
<title>AuthModule</title>
<polygon fill="#8dd3c7" stroke="black" points="2654.55,-187 2651.55,-191 2630.55,-191 2627.55,-187 2567.45,-187 2567.45,-151 2654.55,-151 2654.55,-187"/>
<text text-anchor="middle" x="2611" y="-164.8" font-family="Times,serif" font-size="14.00">AuthModule</text>
</g>
<!-- AuthComponent&#45;&gt;AuthModule -->
<g id="edge17" class="edge">
<title>AuthComponent&#45;&gt;AuthModule</title>
<path fill="none" stroke="black" d="M2996,-122.27C2996,-140.56 2996,-166 2996,-166 2996,-166 2664.79,-166 2664.79,-166"/>
<polygon fill="black" stroke="black" points="2664.79,-162.5 2654.79,-166 2664.79,-169.5 2664.79,-162.5"/>
</g>
<!-- ForgotPasswordComponent -->
<g id="node21" class="node">
<title>ForgotPasswordComponent</title>
<polygon fill="#ffffb3" stroke="black" points="2923.32,-122 2750.68,-122 2750.68,-86 2923.32,-86 2923.32,-122"/>
<text text-anchor="middle" x="2837" y="-99.8" font-family="Times,serif" font-size="14.00">ForgotPasswordComponent</text>
</g>
<!-- ForgotPasswordComponent&#45;&gt;AuthModule -->
<g id="edge18" class="edge">
<title>ForgotPasswordComponent&#45;&gt;AuthModule</title>
<path fill="none" stroke="black" d="M2837,-122.01C2837,-138.05 2837,-159 2837,-159 2837,-159 2664.58,-159 2664.58,-159"/>
<polygon fill="black" stroke="black" points="2664.58,-155.5 2654.58,-159 2664.58,-162.5 2664.58,-155.5"/>
</g>
<!-- LoginComponent -->
<g id="node22" class="node">
<title>LoginComponent</title>
<polygon fill="#ffffb3" stroke="black" points="2732.28,-122 2617.72,-122 2617.72,-86 2732.28,-86 2732.28,-122"/>
<text text-anchor="middle" x="2675" y="-99.8" font-family="Times,serif" font-size="14.00">LoginComponent</text>
</g>
<!-- LoginComponent&#45;&gt;AuthModule -->
<g id="edge19" class="edge">
<title>LoginComponent&#45;&gt;AuthModule</title>
<path fill="none" stroke="black" d="M2636.19,-122.11C2636.19,-122.11 2636.19,-140.99 2636.19,-140.99"/>
<polygon fill="black" stroke="black" points="2632.69,-140.99 2636.19,-150.99 2639.69,-140.99 2632.69,-140.99"/>
</g>
<!-- OtpComponent -->
<g id="node23" class="node">
<title>OtpComponent</title>
<polygon fill="#ffffb3" stroke="black" points="2599.33,-122 2496.67,-122 2496.67,-86 2599.33,-86 2599.33,-122"/>
<text text-anchor="middle" x="2548" y="-99.8" font-family="Times,serif" font-size="14.00">OtpComponent</text>
</g>
<!-- OtpComponent&#45;&gt;AuthModule -->
<g id="edge20" class="edge">
<title>OtpComponent&#45;&gt;AuthModule</title>
<path fill="none" stroke="black" d="M2583.2,-122.11C2583.2,-122.11 2583.2,-140.99 2583.2,-140.99"/>
<polygon fill="black" stroke="black" points="2579.7,-140.99 2583.2,-150.99 2586.7,-140.99 2579.7,-140.99"/>
</g>
<!-- ResetPasswordComponent -->
<g id="node24" class="node">
<title>ResetPasswordComponent</title>
<polygon fill="#ffffb3" stroke="black" points="2479.09,-122 2312.91,-122 2312.91,-86 2479.09,-86 2479.09,-122"/>
<text text-anchor="middle" x="2396" y="-99.8" font-family="Times,serif" font-size="14.00">ResetPasswordComponent</text>
</g>
<!-- ResetPasswordComponent&#45;&gt;AuthModule -->
<g id="edge21" class="edge">
<title>ResetPasswordComponent&#45;&gt;AuthModule</title>
<path fill="none" stroke="black" d="M2396,-122.24C2396,-137.57 2396,-157 2396,-157 2396,-157 2557.23,-157 2557.23,-157"/>
<polygon fill="black" stroke="black" points="2557.23,-160.5 2567.23,-157 2557.23,-153.5 2557.23,-160.5"/>
</g>
<!-- AuthRoutingModule -->
<g id="node26" class="node">
<title>AuthRoutingModule</title>
<polygon fill="#8dd3c7" stroke="black" points="2289.17,-122 2286.17,-126 2265.17,-126 2262.17,-122 2156.83,-122 2156.83,-86 2289.17,-86 2289.17,-122"/>
<text text-anchor="middle" x="2223" y="-99.8" font-family="Times,serif" font-size="14.00">AuthRoutingModule</text>
</g>
<!-- AuthRoutingModule&#45;&gt;AuthModule -->
<g id="edge22" class="edge">
<title>AuthRoutingModule&#45;&gt;AuthModule</title>
<path fill="none" stroke="black" d="M2223,-122.03C2223,-139.06 2223,-162 2223,-162 2223,-162 2557.25,-162 2557.25,-162"/>
<polygon fill="black" stroke="black" points="2557.25,-165.5 2567.25,-162 2557.25,-158.5 2557.25,-165.5"/>
</g>
<!-- BlogComponent -->
<g id="node27" class="node">
<title>BlogComponent</title>
<polygon fill="#ffffb3" stroke="black" points="3949.06,-122 3840.94,-122 3840.94,-86 3949.06,-86 3949.06,-122"/>
<text text-anchor="middle" x="3895" y="-99.8" font-family="Times,serif" font-size="14.00">BlogComponent</text>
</g>
<!-- BlogModule -->
<g id="node32" class="node">
<title>BlogModule</title>
<polygon fill="#8dd3c7" stroke="black" points="3579.28,-187 3576.28,-191 3555.28,-191 3552.28,-187 3492.72,-187 3492.72,-151 3579.28,-151 3579.28,-187"/>
<text text-anchor="middle" x="3536" y="-164.8" font-family="Times,serif" font-size="14.00">BlogModule</text>
</g>
<!-- BlogComponent&#45;&gt;BlogModule -->
<g id="edge23" class="edge">
<title>BlogComponent&#45;&gt;BlogModule</title>
<path fill="none" stroke="black" d="M3895,-122.28C3895,-143.32 3895,-175 3895,-175 3895,-175 3589.3,-175 3589.3,-175"/>
<polygon fill="black" stroke="black" points="3589.3,-171.5 3579.3,-175 3589.3,-178.5 3589.3,-171.5"/>
</g>
<!-- BlogListComponent -->
<g id="node28" class="node">
<title>BlogListComponent</title>
<polygon fill="#ffffb3" stroke="black" points="3823.34,-122 3692.66,-122 3692.66,-86 3823.34,-86 3823.34,-122"/>
<text text-anchor="middle" x="3758" y="-99.8" font-family="Times,serif" font-size="14.00">BlogListComponent</text>
</g>
<!-- BlogListComponent&#45;&gt;BlogModule -->
<g id="edge24" class="edge">
<title>BlogListComponent&#45;&gt;BlogModule</title>
<path fill="none" stroke="black" d="M3758,-122.02C3758,-139.37 3758,-163 3758,-163 3758,-163 3589.33,-163 3589.33,-163"/>
<polygon fill="black" stroke="black" points="3589.33,-159.5 3579.33,-163 3589.33,-166.5 3589.33,-159.5"/>
</g>
<!-- BlogPageComponent -->
<g id="node29" class="node">
<title>BlogPageComponent</title>
<polygon fill="#ffffb3" stroke="black" points="3674.77,-122 3539.23,-122 3539.23,-86 3674.77,-86 3674.77,-122"/>
<text text-anchor="middle" x="3607" y="-99.8" font-family="Times,serif" font-size="14.00">BlogPageComponent</text>
</g>
<!-- BlogPageComponent&#45;&gt;BlogModule -->
<g id="edge25" class="edge">
<title>BlogPageComponent&#45;&gt;BlogModule</title>
<path fill="none" stroke="black" d="M3559.25,-122.11C3559.25,-122.11 3559.25,-140.99 3559.25,-140.99"/>
<polygon fill="black" stroke="black" points="3555.75,-140.99 3559.25,-150.99 3562.75,-140.99 3555.75,-140.99"/>
</g>
<!-- FilterComponent -->
<g id="node30" class="node">
<title>FilterComponent</title>
<polygon fill="#ffffb3" stroke="black" points="3520.66,-122 3409.34,-122 3409.34,-86 3520.66,-86 3520.66,-122"/>
<text text-anchor="middle" x="3465" y="-99.8" font-family="Times,serif" font-size="14.00">FilterComponent</text>
</g>
<!-- FilterComponent&#45;&gt;BlogModule -->
<g id="edge26" class="edge">
<title>FilterComponent&#45;&gt;BlogModule</title>
<path fill="none" stroke="black" d="M3506.72,-122.11C3506.72,-122.11 3506.72,-140.99 3506.72,-140.99"/>
<polygon fill="black" stroke="black" points="3503.22,-140.99 3506.72,-150.99 3510.22,-140.99 3503.22,-140.99"/>
</g>
<!-- PopularBlogsComponent -->
<g id="node31" class="node">
<title>PopularBlogsComponent</title>
<polygon fill="#ffffb3" stroke="black" points="3390.55,-122 3233.45,-122 3233.45,-86 3390.55,-86 3390.55,-122"/>
<text text-anchor="middle" x="3312" y="-99.8" font-family="Times,serif" font-size="14.00">PopularBlogsComponent</text>
</g>
<!-- PopularBlogsComponent&#45;&gt;BlogModule -->
<g id="edge27" class="edge">
<title>PopularBlogsComponent&#45;&gt;BlogModule</title>
<path fill="none" stroke="black" d="M3312,-122.13C3312,-142.57 3312,-173 3312,-173 3312,-173 3482.54,-173 3482.54,-173"/>
<polygon fill="black" stroke="black" points="3482.54,-176.5 3492.54,-173 3482.54,-169.5 3482.54,-176.5"/>
</g>
<!-- BlogService -->
<g id="node33" class="node">
<title>BlogService</title>
<ellipse fill="#fdb462" stroke="black" cx="3150" cy="-104" rx="58.55" ry="18"/>
<text text-anchor="middle" x="3150" y="-99.8" font-family="Times,serif" font-size="14.00">BlogService</text>
</g>
<!-- BlogService&#45;&gt;BlogModule -->
<g id="edge28" class="edge">
<title>BlogService&#45;&gt;BlogModule</title>
<path fill="none" stroke="black" d="M3150,-122.01C3150,-144.49 3150,-180 3150,-180 3150,-180 3482.47,-180 3482.47,-180"/>
<polygon fill="black" stroke="black" points="3482.47,-183.5 3492.47,-180 3482.47,-176.5 3482.47,-183.5"/>
</g>
<!-- GalleryComponent -->
<g id="node34" class="node">
<title>GalleryComponent</title>
<polygon fill="#ffffb3" stroke="black" points="4112.81,-122 3989.19,-122 3989.19,-86 4112.81,-86 4112.81,-122"/>
<text text-anchor="middle" x="4051" y="-99.8" font-family="Times,serif" font-size="14.00">GalleryComponent</text>
</g>
<!-- GalleryModule -->
<g id="node35" class="node">
<title>GalleryModule</title>
<polygon fill="#8dd3c7" stroke="black" points="4101.53,-187 4098.53,-191 4077.53,-191 4074.53,-187 4000.47,-187 4000.47,-151 4101.53,-151 4101.53,-187"/>
<text text-anchor="middle" x="4051" y="-164.8" font-family="Times,serif" font-size="14.00">GalleryModule</text>
</g>
<!-- GalleryComponent&#45;&gt;GalleryModule -->
<g id="edge29" class="edge">
<title>GalleryComponent&#45;&gt;GalleryModule</title>
<path fill="none" stroke="black" d="M4051,-122.11C4051,-122.11 4051,-140.99 4051,-140.99"/>
<polygon fill="black" stroke="black" points="4047.5,-140.99 4051,-150.99 4054.5,-140.99 4047.5,-140.99"/>
</g>
<!-- EventDetailComponent -->
<g id="node36" class="node">
<title>EventDetailComponent</title>
<polygon fill="#ffffb3" stroke="black" points="4828.2,-122 4679.8,-122 4679.8,-86 4828.2,-86 4828.2,-122"/>
<text text-anchor="middle" x="4754" y="-99.8" font-family="Times,serif" font-size="14.00">EventDetailComponent</text>
</g>
<!-- HomeModule -->
<g id="node40" class="node">
<title>HomeModule</title>
<polygon fill="#8dd3c7" stroke="black" points="4567.76,-187 4564.76,-191 4543.76,-191 4540.76,-187 4474.24,-187 4474.24,-151 4567.76,-151 4567.76,-187"/>
<text text-anchor="middle" x="4521" y="-164.8" font-family="Times,serif" font-size="14.00">HomeModule</text>
</g>
<!-- EventDetailComponent&#45;&gt;HomeModule -->
<g id="edge30" class="edge">
<title>EventDetailComponent&#45;&gt;HomeModule</title>
<path fill="none" stroke="black" d="M4754,-122.11C4754,-141.34 4754,-169 4754,-169 4754,-169 4577.87,-169 4577.87,-169"/>
<polygon fill="black" stroke="black" points="4577.87,-165.5 4567.87,-169 4577.87,-172.5 4577.87,-165.5"/>
</g>
<!-- HomeComponent -->
<g id="node37" class="node">
<title>HomeComponent</title>
<polygon fill="#ffffb3" stroke="black" points="4661.55,-122 4546.45,-122 4546.45,-86 4661.55,-86 4661.55,-122"/>
<text text-anchor="middle" x="4604" y="-99.8" font-family="Times,serif" font-size="14.00">HomeComponent</text>
</g>
<!-- HomeComponent&#45;&gt;HomeModule -->
<g id="edge31" class="edge">
<title>HomeComponent&#45;&gt;HomeModule</title>
<path fill="none" stroke="black" d="M4557.05,-122.11C4557.05,-122.11 4557.05,-140.99 4557.05,-140.99"/>
<polygon fill="black" stroke="black" points="4553.55,-140.99 4557.05,-150.99 4560.55,-140.99 4553.55,-140.99"/>
</g>
<!-- TechnologyStackComponent -->
<g id="node38" class="node">
<title>TechnologyStackComponent</title>
<polygon fill="#ffffb3" stroke="black" points="4528.81,-122 4349.19,-122 4349.19,-86 4528.81,-86 4528.81,-122"/>
<text text-anchor="middle" x="4439" y="-99.8" font-family="Times,serif" font-size="14.00">TechnologyStackComponent</text>
</g>
<!-- TechnologyStackComponent&#45;&gt;HomeModule -->
<g id="edge32" class="edge">
<title>TechnologyStackComponent&#45;&gt;HomeModule</title>
<path fill="none" stroke="black" d="M4501.39,-122.11C4501.39,-122.11 4501.39,-140.99 4501.39,-140.99"/>
<polygon fill="black" stroke="black" points="4497.89,-140.99 4501.39,-150.99 4504.89,-140.99 4497.89,-140.99"/>
</g>
<!-- UpcomingEventsComponent -->
<g id="node39" class="node">
<title>UpcomingEventsComponent</title>
<polygon fill="#ffffb3" stroke="black" points="4331.04,-122 4152.96,-122 4152.96,-86 4331.04,-86 4331.04,-122"/>
<text text-anchor="middle" x="4242" y="-99.8" font-family="Times,serif" font-size="14.00">UpcomingEventsComponent</text>
</g>
<!-- UpcomingEventsComponent&#45;&gt;HomeModule -->
<g id="edge33" class="edge">
<title>UpcomingEventsComponent&#45;&gt;HomeModule</title>
<path fill="none" stroke="black" d="M4242,-122.11C4242,-141.34 4242,-169 4242,-169 4242,-169 4463.99,-169 4463.99,-169"/>
<polygon fill="black" stroke="black" points="4463.99,-172.5 4473.99,-169 4463.99,-165.5 4463.99,-172.5"/>
</g>
<!-- MembersComponent -->
<g id="node41" class="node">
<title>MembersComponent</title>
<polygon fill="#ffffb3" stroke="black" points="5184.2,-122 5049.8,-122 5049.8,-86 5184.2,-86 5184.2,-122"/>
<text text-anchor="middle" x="5117" y="-99.8" font-family="Times,serif" font-size="14.00">MembersComponent</text>
</g>
<!-- MembersModule -->
<g id="node42" class="node">
<title>MembersModule</title>
<polygon fill="#8dd3c7" stroke="black" points="5088.42,-187 5085.42,-191 5064.42,-191 5061.42,-187 4975.58,-187 4975.58,-151 5088.42,-151 5088.42,-187"/>
<text text-anchor="middle" x="5032" y="-164.8" font-family="Times,serif" font-size="14.00">MembersModule</text>
</g>
<!-- MembersComponent&#45;&gt;MembersModule -->
<g id="edge34" class="edge">
<title>MembersComponent&#45;&gt;MembersModule</title>
<path fill="none" stroke="black" d="M5069.05,-122.11C5069.05,-122.11 5069.05,-140.99 5069.05,-140.99"/>
<polygon fill="black" stroke="black" points="5065.55,-140.99 5069.05,-150.99 5072.55,-140.99 5065.55,-140.99"/>
</g>
<!-- MembersRoutingModule -->
<g id="node43" class="node">
<title>MembersRoutingModule</title>
<polygon fill="#8dd3c7" stroke="black" points="5025.54,-122 5022.54,-126 5001.54,-126 4998.54,-122 4868.46,-122 4868.46,-86 5025.54,-86 5025.54,-122"/>
<text text-anchor="middle" x="4947" y="-99.8" font-family="Times,serif" font-size="14.00">MembersRoutingModule</text>
</g>
<!-- MembersRoutingModule&#45;&gt;MembersModule -->
<g id="edge35" class="edge">
<title>MembersRoutingModule&#45;&gt;MembersModule</title>
<path fill="none" stroke="black" d="M5000.78,-122.11C5000.78,-122.11 5000.78,-140.99 5000.78,-140.99"/>
<polygon fill="black" stroke="black" points="4997.28,-140.99 5000.78,-150.99 5004.28,-140.99 4997.28,-140.99"/>
</g>
</g>
</svg>
