<?xml version="1.0" encoding="UTF-8" standalone="no"?>
<!DOCTYPE svg PUBLIC "-//W3C//DTD SVG 1.1//EN"
 "http://www.w3.org/Graphics/SVG/1.1/DTD/svg11.dtd">
<!-- Generated by graphviz version 2.47.0 (20210316.0004)
 -->
<!-- Title: dependencies Pages: 1 -->
<svg width="1334pt" height="284pt"
 viewBox="0.00 0.00 1334.00 284.00" xmlns="http://www.w3.org/2000/svg" xmlns:xlink="http://www.w3.org/1999/xlink">
<g id="graph0" class="graph" transform="scale(1 1) rotate(0) translate(4 280)">
<title>dependencies</title>
<polygon fill="white" stroke="transparent" points="-4,4 -4,-280 1330,-280 1330,4 -4,4"/>
<text text-anchor="start" x="642.01" y="-42.4" font-family="sans-serif" font-weight="bold" font-size="14.00">Legend</text>
<polygon fill="#ffffb3" stroke="transparent" points="429,-10 429,-30 449,-30 449,-10 429,-10"/>
<text text-anchor="start" x="452.63" y="-15.4" font-family="sans-serif" font-size="14.00"> &#160;Declarations</text>
<polygon fill="#8dd3c7" stroke="transparent" points="542,-10 542,-30 562,-30 562,-10 542,-10"/>
<text text-anchor="start" x="565.73" y="-15.4" font-family="sans-serif" font-size="14.00"> &#160;Module</text>
<polygon fill="#80b1d3" stroke="transparent" points="628,-10 628,-30 648,-30 648,-10 628,-10"/>
<text text-anchor="start" x="651.78" y="-15.4" font-family="sans-serif" font-size="14.00"> &#160;Bootstrap</text>
<polygon fill="#fdb462" stroke="transparent" points="725,-10 725,-30 745,-30 745,-10 725,-10"/>
<text text-anchor="start" x="748.67" y="-15.4" font-family="sans-serif" font-size="14.00"> &#160;Providers</text>
<polygon fill="#fb8072" stroke="transparent" points="821,-10 821,-30 841,-30 841,-10 821,-10"/>
<text text-anchor="start" x="844.73" y="-15.4" font-family="sans-serif" font-size="14.00"> &#160;Exports</text>
<g id="clust1" class="cluster">
<title>cluster_AppModule</title>
<polygon fill="none" stroke="black" stroke-dasharray="1,5" points="8,-70 8,-268 1318,-268 1318,-70 8,-70"/>
</g>
<g id="clust13" class="cluster">
<title>cluster_AppModule_bootstrap</title>
<polygon fill="none" stroke="black" points="629,-208 629,-260 753,-260 753,-208 629,-208"/>
</g>
<g id="clust2" class="cluster">
<title>cluster_AppModule_declarations</title>
<polygon fill="none" stroke="black" points="168,-78 168,-130 1310,-130 1310,-78 168,-78"/>
</g>
<g id="clust11" class="cluster">
<title>cluster_AppModule_imports</title>
<polygon fill="none" stroke="black" points="16,-78 16,-130 160,-130 160,-78 16,-78"/>
</g>
<!-- AppComponent -->
<g id="node1" class="node">
<title>AppComponent</title>
<polygon fill="#ffffb3" stroke="black" points="1301.94,-122 1196.06,-122 1196.06,-86 1301.94,-86 1301.94,-122"/>
<text text-anchor="middle" x="1249" y="-99.8" font-family="Times,serif" font-size="14.00">AppComponent</text>
</g>
<!-- AppModule -->
<g id="node9" class="node">
<title>AppModule</title>
<polygon fill="#8dd3c7" stroke="black" points="732.66,-187 729.66,-191 708.66,-191 705.66,-187 649.34,-187 649.34,-151 732.66,-151 732.66,-187"/>
<text text-anchor="middle" x="691" y="-164.8" font-family="Times,serif" font-size="14.00">AppModule</text>
</g>
<!-- AppComponent&#45;&gt;AppModule -->
<g id="edge1" class="edge">
<title>AppComponent&#45;&gt;AppModule</title>
<path fill="none" stroke="black" d="M1249,-122.01C1249,-144.49 1249,-180 1249,-180 1249,-180 742.94,-180 742.94,-180"/>
<polygon fill="black" stroke="black" points="742.94,-176.5 732.94,-180 742.94,-183.5 742.94,-176.5"/>
</g>
<!-- ErrorsComponent -->
<g id="node2" class="node">
<title>ErrorsComponent</title>
<polygon fill="#ffffb3" stroke="black" points="1178.31,-122 1061.69,-122 1061.69,-86 1178.31,-86 1178.31,-122"/>
<text text-anchor="middle" x="1120" y="-99.8" font-family="Times,serif" font-size="14.00">ErrorsComponent</text>
</g>
<!-- ErrorsComponent&#45;&gt;AppModule -->
<g id="edge2" class="edge">
<title>ErrorsComponent&#45;&gt;AppModule</title>
<path fill="none" stroke="black" d="M1120,-122.13C1120,-142.57 1120,-173 1120,-173 1120,-173 742.92,-173 742.92,-173"/>
<polygon fill="black" stroke="black" points="742.92,-169.5 732.92,-173 742.92,-176.5 742.92,-169.5"/>
</g>
<!-- FooterComponent -->
<g id="node3" class="node">
<title>FooterComponent</title>
<polygon fill="#ffffb3" stroke="black" points="1043.88,-122 926.12,-122 926.12,-86 1043.88,-86 1043.88,-122"/>
<text text-anchor="middle" x="985" y="-99.8" font-family="Times,serif" font-size="14.00">FooterComponent</text>
</g>
<!-- FooterComponent&#45;&gt;AppModule -->
<g id="edge3" class="edge">
<title>FooterComponent&#45;&gt;AppModule</title>
<path fill="none" stroke="black" d="M985,-122.27C985,-140.56 985,-166 985,-166 985,-166 742.81,-166 742.81,-166"/>
<polygon fill="black" stroke="black" points="742.81,-162.5 732.81,-166 742.81,-169.5 742.81,-162.5"/>
</g>
<!-- HeaderComponent -->
<g id="node4" class="node">
<title>HeaderComponent</title>
<polygon fill="#ffffb3" stroke="black" points="907.74,-122 786.26,-122 786.26,-86 907.74,-86 907.74,-122"/>
<text text-anchor="middle" x="847" y="-99.8" font-family="Times,serif" font-size="14.00">HeaderComponent</text>
</g>
<!-- HeaderComponent&#45;&gt;AppModule -->
<g id="edge4" class="edge">
<title>HeaderComponent&#45;&gt;AppModule</title>
<path fill="none" stroke="black" d="M847,-122.01C847,-138.05 847,-159 847,-159 847,-159 742.81,-159 742.81,-159"/>
<polygon fill="black" stroke="black" points="742.81,-155.5 732.81,-159 742.81,-162.5 742.81,-155.5"/>
</g>
<!-- MaintenanceComponent -->
<g id="node5" class="node">
<title>MaintenanceComponent</title>
<polygon fill="#ffffb3" stroke="black" points="767.63,-122 614.37,-122 614.37,-86 767.63,-86 767.63,-122"/>
<text text-anchor="middle" x="691" y="-99.8" font-family="Times,serif" font-size="14.00">MaintenanceComponent</text>
</g>
<!-- MaintenanceComponent&#45;&gt;AppModule -->
<g id="edge5" class="edge">
<title>MaintenanceComponent&#45;&gt;AppModule</title>
<path fill="none" stroke="black" d="M691,-122.11C691,-122.11 691,-140.99 691,-140.99"/>
<polygon fill="black" stroke="black" points="687.5,-140.99 691,-150.99 694.5,-140.99 687.5,-140.99"/>
</g>
<!-- NotFoundComponent -->
<g id="node6" class="node">
<title>NotFoundComponent</title>
<polygon fill="#ffffb3" stroke="black" points="596.11,-122 457.89,-122 457.89,-86 596.11,-86 596.11,-122"/>
<text text-anchor="middle" x="527" y="-99.8" font-family="Times,serif" font-size="14.00">NotFoundComponent</text>
</g>
<!-- NotFoundComponent&#45;&gt;AppModule -->
<g id="edge6" class="edge">
<title>NotFoundComponent&#45;&gt;AppModule</title>
<path fill="none" stroke="black" d="M527,-122.01C527,-138.05 527,-159 527,-159 527,-159 639.19,-159 639.19,-159"/>
<polygon fill="black" stroke="black" points="639.19,-162.5 649.19,-159 639.19,-155.5 639.19,-162.5"/>
</g>
<!-- OfflineComponent -->
<g id="node7" class="node">
<title>OfflineComponent</title>
<polygon fill="#ffffb3" stroke="black" points="439.76,-122 318.24,-122 318.24,-86 439.76,-86 439.76,-122"/>
<text text-anchor="middle" x="379" y="-99.8" font-family="Times,serif" font-size="14.00">OfflineComponent</text>
</g>
<!-- OfflineComponent&#45;&gt;AppModule -->
<g id="edge7" class="edge">
<title>OfflineComponent&#45;&gt;AppModule</title>
<path fill="none" stroke="black" d="M379,-122.27C379,-140.56 379,-166 379,-166 379,-166 639.25,-166 639.25,-166"/>
<polygon fill="black" stroke="black" points="639.25,-169.5 649.25,-166 639.25,-162.5 639.25,-169.5"/>
</g>
<!-- SidebarComponent -->
<g id="node8" class="node">
<title>SidebarComponent</title>
<polygon fill="#ffffb3" stroke="black" points="300.1,-122 175.9,-122 175.9,-86 300.1,-86 300.1,-122"/>
<text text-anchor="middle" x="238" y="-99.8" font-family="Times,serif" font-size="14.00">SidebarComponent</text>
</g>
<!-- SidebarComponent&#45;&gt;AppModule -->
<g id="edge8" class="edge">
<title>SidebarComponent&#45;&gt;AppModule</title>
<path fill="none" stroke="black" d="M238,-122.13C238,-142.57 238,-173 238,-173 238,-173 639.19,-173 639.19,-173"/>
<polygon fill="black" stroke="black" points="639.19,-176.5 649.19,-173 639.19,-169.5 639.19,-176.5"/>
</g>
<!-- AppComponent  -->
<g id="node11" class="node">
<title>AppComponent </title>
<polygon fill="#80b1d3" stroke="black" points="745.44,-252 636.56,-252 636.56,-216 745.44,-216 745.44,-252"/>
<text text-anchor="middle" x="691" y="-229.8" font-family="Times,serif" font-size="14.00">AppComponent </text>
</g>
<!-- AppModule&#45;&gt;AppComponent  -->
<g id="edge10" class="edge">
<title>AppModule&#45;&gt;AppComponent </title>
<path fill="none" stroke="black" stroke-dasharray="1,5" d="M691,-187.11C691,-187.11 691,-205.99 691,-205.99"/>
<polygon fill="black" stroke="black" points="687.5,-205.99 691,-215.99 694.5,-205.99 687.5,-205.99"/>
</g>
<!-- AppRoutingModule -->
<g id="node10" class="node">
<title>AppRoutingModule</title>
<polygon fill="#8dd3c7" stroke="black" points="152.27,-122 149.27,-126 128.27,-126 125.27,-122 23.73,-122 23.73,-86 152.27,-86 152.27,-122"/>
<text text-anchor="middle" x="88" y="-99.8" font-family="Times,serif" font-size="14.00">AppRoutingModule</text>
</g>
<!-- AppRoutingModule&#45;&gt;AppModule -->
<g id="edge9" class="edge">
<title>AppRoutingModule&#45;&gt;AppModule</title>
<path fill="none" stroke="black" d="M88,-122.01C88,-144.49 88,-180 88,-180 88,-180 639.08,-180 639.08,-180"/>
<polygon fill="black" stroke="black" points="639.08,-183.5 649.08,-180 639.08,-176.5 639.08,-183.5"/>
</g>
</g>
</svg>
