<?xml version="1.0" encoding="UTF-8" standalone="no"?>
<!DOCTYPE svg PUBLIC "-//W3C//DTD SVG 1.1//EN"
 "http://www.w3.org/Graphics/SVG/1.1/DTD/svg11.dtd">
<!-- Generated by graphviz version 2.47.0 (20210316.0004)
 -->
<!-- Title: dependencies Pages: 1 -->
<svg width="731pt" height="211pt"
 viewBox="0.00 0.00 731.00 211.00" xmlns="http://www.w3.org/2000/svg" xmlns:xlink="http://www.w3.org/1999/xlink">
<g id="graph0" class="graph" transform="scale(1 1) rotate(0) translate(4 207)">
<title>dependencies</title>
<polygon fill="white" stroke="transparent" points="-4,4 -4,-207 727,-207 727,4 -4,4"/>
<text text-anchor="start" x="340.51" y="-42.4" font-family="sans-serif" font-weight="bold" font-size="14.00">Legend</text>
<polygon fill="#ffffb3" stroke="transparent" points="127.5,-10 127.5,-30 147.5,-30 147.5,-10 127.5,-10"/>
<text text-anchor="start" x="151.13" y="-15.4" font-family="sans-serif" font-size="14.00"> &#160;Declarations</text>
<polygon fill="#8dd3c7" stroke="transparent" points="240.5,-10 240.5,-30 260.5,-30 260.5,-10 240.5,-10"/>
<text text-anchor="start" x="264.23" y="-15.4" font-family="sans-serif" font-size="14.00"> &#160;Module</text>
<polygon fill="#80b1d3" stroke="transparent" points="326.5,-10 326.5,-30 346.5,-30 346.5,-10 326.5,-10"/>
<text text-anchor="start" x="350.28" y="-15.4" font-family="sans-serif" font-size="14.00"> &#160;Bootstrap</text>
<polygon fill="#fdb462" stroke="transparent" points="423.5,-10 423.5,-30 443.5,-30 443.5,-10 423.5,-10"/>
<text text-anchor="start" x="447.17" y="-15.4" font-family="sans-serif" font-size="14.00"> &#160;Providers</text>
<polygon fill="#fb8072" stroke="transparent" points="519.5,-10 519.5,-30 539.5,-30 539.5,-10 519.5,-10"/>
<text text-anchor="start" x="543.23" y="-15.4" font-family="sans-serif" font-size="14.00"> &#160;Exports</text>
<g id="clust1" class="cluster">
<title>cluster_HomeModule</title>
<polygon fill="none" stroke="black" stroke-dasharray="1,5" points="8,-70 8,-195 715,-195 715,-70 8,-70"/>
</g>
<g id="clust2" class="cluster">
<title>cluster_HomeModule_declarations</title>
<polygon fill="none" stroke="black" points="16,-78 16,-130 707,-130 707,-78 16,-78"/>
</g>
<!-- EventDetailComponent -->
<g id="node1" class="node">
<title>EventDetailComponent</title>
<polygon fill="#ffffb3" stroke="black" points="699.2,-122 550.8,-122 550.8,-86 699.2,-86 699.2,-122"/>
<text text-anchor="middle" x="625" y="-99.8" font-family="Times,serif" font-size="14.00">EventDetailComponent</text>
</g>
<!-- HomeModule -->
<g id="node5" class="node">
<title>HomeModule</title>
<polygon fill="#8dd3c7" stroke="black" points="438.76,-187 435.76,-191 414.76,-191 411.76,-187 345.24,-187 345.24,-151 438.76,-151 438.76,-187"/>
<text text-anchor="middle" x="392" y="-164.8" font-family="Times,serif" font-size="14.00">HomeModule</text>
</g>
<!-- EventDetailComponent&#45;&gt;HomeModule -->
<g id="edge1" class="edge">
<title>EventDetailComponent&#45;&gt;HomeModule</title>
<path fill="none" stroke="black" d="M625,-122.11C625,-141.34 625,-169 625,-169 625,-169 448.87,-169 448.87,-169"/>
<polygon fill="black" stroke="black" points="448.87,-165.5 438.87,-169 448.87,-172.5 448.87,-165.5"/>
</g>
<!-- HomeComponent -->
<g id="node2" class="node">
<title>HomeComponent</title>
<polygon fill="#ffffb3" stroke="black" points="532.55,-122 417.45,-122 417.45,-86 532.55,-86 532.55,-122"/>
<text text-anchor="middle" x="475" y="-99.8" font-family="Times,serif" font-size="14.00">HomeComponent</text>
</g>
<!-- HomeComponent&#45;&gt;HomeModule -->
<g id="edge2" class="edge">
<title>HomeComponent&#45;&gt;HomeModule</title>
<path fill="none" stroke="black" d="M428.05,-122.11C428.05,-122.11 428.05,-140.99 428.05,-140.99"/>
<polygon fill="black" stroke="black" points="424.55,-140.99 428.05,-150.99 431.55,-140.99 424.55,-140.99"/>
</g>
<!-- TechnologyStackComponent -->
<g id="node3" class="node">
<title>TechnologyStackComponent</title>
<polygon fill="#ffffb3" stroke="black" points="399.81,-122 220.19,-122 220.19,-86 399.81,-86 399.81,-122"/>
<text text-anchor="middle" x="310" y="-99.8" font-family="Times,serif" font-size="14.00">TechnologyStackComponent</text>
</g>
<!-- TechnologyStackComponent&#45;&gt;HomeModule -->
<g id="edge3" class="edge">
<title>TechnologyStackComponent&#45;&gt;HomeModule</title>
<path fill="none" stroke="black" d="M372.39,-122.11C372.39,-122.11 372.39,-140.99 372.39,-140.99"/>
<polygon fill="black" stroke="black" points="368.89,-140.99 372.39,-150.99 375.89,-140.99 368.89,-140.99"/>
</g>
<!-- UpcomingEventsComponent -->
<g id="node4" class="node">
<title>UpcomingEventsComponent</title>
<polygon fill="#ffffb3" stroke="black" points="202.04,-122 23.96,-122 23.96,-86 202.04,-86 202.04,-122"/>
<text text-anchor="middle" x="113" y="-99.8" font-family="Times,serif" font-size="14.00">UpcomingEventsComponent</text>
</g>
<!-- UpcomingEventsComponent&#45;&gt;HomeModule -->
<g id="edge4" class="edge">
<title>UpcomingEventsComponent&#45;&gt;HomeModule</title>
<path fill="none" stroke="black" d="M113,-122.11C113,-141.34 113,-169 113,-169 113,-169 334.99,-169 334.99,-169"/>
<polygon fill="black" stroke="black" points="334.99,-172.5 344.99,-169 334.99,-165.5 334.99,-172.5"/>
</g>
</g>
</svg>
