<?xml version="1.0" encoding="UTF-8" standalone="no"?>
<!DOCTYPE svg PUBLIC "-//W3C//DTD SVG 1.1//EN"
 "http://www.w3.org/Graphics/SVG/1.1/DTD/svg11.dtd">
<!-- Generated by graphviz version 2.47.0 (20210316.0004)
 -->
<!-- Title: dependencies Pages: 1 -->
<svg width="504pt" height="211pt"
 viewBox="0.00 0.00 504.00 211.00" xmlns="http://www.w3.org/2000/svg" xmlns:xlink="http://www.w3.org/1999/xlink">
<g id="graph0" class="graph" transform="scale(1 1) rotate(0) translate(4 207)">
<title>dependencies</title>
<polygon fill="white" stroke="transparent" points="-4,4 -4,-207 500,-207 500,4 -4,4"/>
<text text-anchor="start" x="227.01" y="-42.4" font-family="sans-serif" font-weight="bold" font-size="14.00">Legend</text>
<polygon fill="#ffffb3" stroke="transparent" points="14,-10 14,-30 34,-30 34,-10 14,-10"/>
<text text-anchor="start" x="37.63" y="-15.4" font-family="sans-serif" font-size="14.00"> &#160;Declarations</text>
<polygon fill="#8dd3c7" stroke="transparent" points="127,-10 127,-30 147,-30 147,-10 127,-10"/>
<text text-anchor="start" x="150.73" y="-15.4" font-family="sans-serif" font-size="14.00"> &#160;Module</text>
<polygon fill="#80b1d3" stroke="transparent" points="213,-10 213,-30 233,-30 233,-10 213,-10"/>
<text text-anchor="start" x="236.78" y="-15.4" font-family="sans-serif" font-size="14.00"> &#160;Bootstrap</text>
<polygon fill="#fdb462" stroke="transparent" points="310,-10 310,-30 330,-30 330,-10 310,-10"/>
<text text-anchor="start" x="333.67" y="-15.4" font-family="sans-serif" font-size="14.00"> &#160;Providers</text>
<polygon fill="#fb8072" stroke="transparent" points="406,-10 406,-30 426,-30 426,-10 406,-10"/>
<text text-anchor="start" x="429.73" y="-15.4" font-family="sans-serif" font-size="14.00"> &#160;Exports</text>
<g id="clust1" class="cluster">
<title>cluster_MembersModule</title>
<polygon fill="none" stroke="black" stroke-dasharray="1,5" points="74,-70 74,-195 422,-195 422,-70 74,-70"/>
</g>
<g id="clust4" class="cluster">
<title>cluster_MembersModule_imports</title>
<polygon fill="none" stroke="black" points="240,-78 240,-130 414,-130 414,-78 240,-78"/>
</g>
<g id="clust2" class="cluster">
<title>cluster_MembersModule_declarations</title>
<polygon fill="none" stroke="black" points="82,-78 82,-130 232,-130 232,-78 82,-78"/>
</g>
<!-- MembersComponent -->
<g id="node1" class="node">
<title>MembersComponent</title>
<polygon fill="#ffffb3" stroke="black" points="224.2,-122 89.8,-122 89.8,-86 224.2,-86 224.2,-122"/>
<text text-anchor="middle" x="157" y="-99.8" font-family="Times,serif" font-size="14.00">MembersComponent</text>
</g>
<!-- MembersModule -->
<g id="node2" class="node">
<title>MembersModule</title>
<polygon fill="#8dd3c7" stroke="black" points="298.42,-187 295.42,-191 274.42,-191 271.42,-187 185.58,-187 185.58,-151 298.42,-151 298.42,-187"/>
<text text-anchor="middle" x="242" y="-164.8" font-family="Times,serif" font-size="14.00">MembersModule</text>
</g>
<!-- MembersComponent&#45;&gt;MembersModule -->
<g id="edge1" class="edge">
<title>MembersComponent&#45;&gt;MembersModule</title>
<path fill="none" stroke="black" d="M204.95,-122.11C204.95,-122.11 204.95,-140.99 204.95,-140.99"/>
<polygon fill="black" stroke="black" points="201.45,-140.99 204.95,-150.99 208.45,-140.99 201.45,-140.99"/>
</g>
<!-- MembersRoutingModule -->
<g id="node3" class="node">
<title>MembersRoutingModule</title>
<polygon fill="#8dd3c7" stroke="black" points="405.54,-122 402.54,-126 381.54,-126 378.54,-122 248.46,-122 248.46,-86 405.54,-86 405.54,-122"/>
<text text-anchor="middle" x="327" y="-99.8" font-family="Times,serif" font-size="14.00">MembersRoutingModule</text>
</g>
<!-- MembersRoutingModule&#45;&gt;MembersModule -->
<g id="edge2" class="edge">
<title>MembersRoutingModule&#45;&gt;MembersModule</title>
<path fill="none" stroke="black" d="M273.22,-122.11C273.22,-122.11 273.22,-140.99 273.22,-140.99"/>
<polygon fill="black" stroke="black" points="269.72,-140.99 273.22,-150.99 276.72,-140.99 269.72,-140.99"/>
</g>
</g>
</svg>
