<?xml version="1.0" encoding="UTF-8" standalone="no"?>
<!DOCTYPE svg PUBLIC "-//W3C//DTD SVG 1.1//EN"
 "http://www.w3.org/Graphics/SVG/1.1/DTD/svg11.dtd">
<!-- Generated by graphviz version 2.47.0 (20210316.0004)
 -->
<!-- Title: dependencies Pages: 1 -->
<svg width="504pt" height="276pt"
 viewBox="0.00 0.00 504.00 276.00" xmlns="http://www.w3.org/2000/svg" xmlns:xlink="http://www.w3.org/1999/xlink">
<g id="graph0" class="graph" transform="scale(1 1) rotate(0) translate(4 272)">
<title>dependencies</title>
<polygon fill="white" stroke="transparent" points="-4,4 -4,-272 500,-272 500,4 -4,4"/>
<text text-anchor="start" x="227.01" y="-42.4" font-family="sans-serif" font-weight="bold" font-size="14.00">Legend</text>
<polygon fill="#ffffb3" stroke="transparent" points="14,-10 14,-30 34,-30 34,-10 14,-10"/>
<text text-anchor="start" x="37.63" y="-15.4" font-family="sans-serif" font-size="14.00"> &#160;Declarations</text>
<polygon fill="#8dd3c7" stroke="transparent" points="127,-10 127,-30 147,-30 147,-10 127,-10"/>
<text text-anchor="start" x="150.73" y="-15.4" font-family="sans-serif" font-size="14.00"> &#160;Module</text>
<polygon fill="#80b1d3" stroke="transparent" points="213,-10 213,-30 233,-30 233,-10 213,-10"/>
<text text-anchor="start" x="236.78" y="-15.4" font-family="sans-serif" font-size="14.00"> &#160;Bootstrap</text>
<polygon fill="#fdb462" stroke="transparent" points="310,-10 310,-30 330,-30 330,-10 310,-10"/>
<text text-anchor="start" x="333.67" y="-15.4" font-family="sans-serif" font-size="14.00"> &#160;Providers</text>
<polygon fill="#fb8072" stroke="transparent" points="406,-10 406,-30 426,-30 426,-10 406,-10"/>
<text text-anchor="start" x="429.73" y="-15.4" font-family="sans-serif" font-size="14.00"> &#160;Exports</text>
<g id="clust1" class="cluster">
<title>cluster_ActivitiesModule</title>
<polygon fill="none" stroke="black" stroke-dasharray="1,5" points="74,-70 74,-260 422,-260 422,-70 74,-70"/>
</g>
<g id="clust7" class="cluster">
<title>cluster_ActivitiesModule_providers</title>
<polygon fill="none" stroke="black" points="242,-143 242,-195 414,-195 414,-143 242,-143"/>
</g>
<g id="clust2" class="cluster">
<title>cluster_ActivitiesModule_declarations</title>
<polygon fill="none" stroke="black" points="82,-143 82,-195 234,-195 234,-143 82,-143"/>
</g>
<g id="clust3" class="cluster">
<title>cluster_ActivitiesModule_ActivitiesComponent_providers</title>
<polygon fill="none" stroke="black" points="82,-78 82,-130 276,-130 276,-78 82,-78"/>
</g>
<!-- ActivitiesComponent -->
<g id="node1" class="node">
<title>ActivitiesComponent</title>
<polygon fill="#ffffb3" stroke="black" points="225.77,-187 90.23,-187 90.23,-151 225.77,-151 225.77,-187"/>
<text text-anchor="middle" x="158" y="-164.8" font-family="Times,serif" font-size="14.00">ActivitiesComponent</text>
</g>
<!-- ActivitiesModule -->
<g id="node2" class="node">
<title>ActivitiesModule</title>
<polygon fill="#8dd3c7" stroke="black" points="299.98,-252 296.98,-256 275.98,-256 272.98,-252 186.02,-252 186.02,-216 299.98,-216 299.98,-252"/>
<text text-anchor="middle" x="243" y="-229.8" font-family="Times,serif" font-size="14.00">ActivitiesModule</text>
</g>
<!-- ActivitiesComponent&#45;&gt;ActivitiesModule -->
<g id="edge1" class="edge">
<title>ActivitiesComponent&#45;&gt;ActivitiesModule</title>
<path fill="none" stroke="black" d="M205.95,-187.11C205.95,-187.11 205.95,-205.99 205.95,-205.99"/>
<polygon fill="black" stroke="black" points="202.45,-205.99 205.95,-215.99 209.45,-205.99 202.45,-205.99"/>
</g>
<!-- NgbCarouselConfig -->
<g id="node3" class="node">
<title>NgbCarouselConfig</title>
<ellipse fill="#fdb462" stroke="black" cx="179" cy="-104" rx="88.63" ry="18"/>
<text text-anchor="middle" x="179" y="-99.8" font-family="Times,serif" font-size="14.00">NgbCarouselConfig</text>
</g>
<!-- NgbCarouselConfig&#45;&gt;ActivitiesComponent -->
<g id="edge2" class="edge">
<title>NgbCarouselConfig&#45;&gt;ActivitiesComponent</title>
<path fill="none" stroke="black" d="M158.03,-121.76C158.03,-121.76 158.03,-140.81 158.03,-140.81"/>
<polygon fill="black" stroke="black" points="154.53,-140.81 158.03,-150.81 161.53,-140.81 154.53,-140.81"/>
</g>
<!-- ActivitiesService -->
<g id="node4" class="node">
<title>ActivitiesService</title>
<ellipse fill="#fdb462" stroke="black" cx="328" cy="-169" rx="77.58" ry="18"/>
<text text-anchor="middle" x="328" y="-164.8" font-family="Times,serif" font-size="14.00">ActivitiesService</text>
</g>
<!-- ActivitiesService&#45;&gt;ActivitiesModule -->
<g id="edge3" class="edge">
<title>ActivitiesService&#45;&gt;ActivitiesModule</title>
<path fill="none" stroke="black" d="M275.23,-182.47C275.23,-182.47 275.23,-205.86 275.23,-205.86"/>
<polygon fill="black" stroke="black" points="271.73,-205.86 275.23,-215.86 278.73,-205.86 271.73,-205.86"/>
</g>
</g>
</svg>
